<svg width="125" height="101" viewBox="0 0 125 101" fill="none" xmlns="http://www.w3.org/2000/svg">
<path d="M89.1033 25H83.8413L68 12.4088L73.262 4H99.6826L105 12.4088L89.1033 25Z" stroke="#9DBBE5" stroke-width="8" stroke-miterlimit="10"/>
<path d="M86.5 80C105.554 80 121 67.6878 121 52.5C121 37.3122 105.554 25 86.5 25C67.4462 25 52 37.3122 52 52.5C52 67.6878 67.4462 80 86.5 80Z" stroke="#9DBBE5" stroke-width="8" stroke-miterlimit="10"/>
<path d="M44 97C66.0914 97 84 82.6731 84 65C84 47.3269 66.0914 33 44 33C21.9086 33 4 47.3269 4 65C4 82.6731 21.9086 97 44 97Z" stroke="#9DBBE5" stroke-width="8" stroke-miterlimit="10"/>
</svg>
