<svg width="122" height="93" viewBox="0 0 122 93" fill="none" xmlns="http://www.w3.org/2000/svg">
<path d="M88.9277 7.21902C100.566 16.8548 100.566 32.4868 88.9277 42.1225L55.5848 69.7281C51.8515 72.8202 45.8052 72.8202 42.0722 69.7285L8.7291 42.1227C-2.9097 32.4869 -2.9097 16.8549 8.7291 7.21913C19.7122 -1.87374 37.1329 -2.37686 48.8284 5.70988C60.5239 -2.37686 77.9445 -1.87385 88.9277 7.21902ZM46.8348 10.5729C37.4156 2.77477 22.1355 2.77477 12.7163 10.5729C3.30962 18.3607 3.30962 30.9807 12.7163 38.7686L46.0598 66.3748C47.5858 67.6387 50.0709 67.6387 51.5972 66.3745L84.9403 38.7685C94.347 30.9807 94.347 18.3607 84.9403 10.5728C75.5211 2.77466 60.2411 2.77466 50.8218 10.5728C49.7182 11.4864 47.9383 11.4866 46.8348 10.5729ZM117.691 62.2137C123.436 66.9716 123.436 74.6924 117.691 79.4489L103.02 91.5949C100.759 93.4683 97.1013 93.4683 94.8404 91.5954L80.1694 79.4489C74.4238 74.6924 74.4238 66.9716 80.1694 62.2135C85.2783 57.9839 93.2069 57.5224 98.93 60.8295C104.653 57.5225 112.582 57.9839 117.691 62.2137ZM96.9363 65.5672C93.4105 62.6473 87.6839 62.6473 84.1568 65.5672C80.643 68.477 80.643 73.1862 84.1565 76.095L98.8282 88.2419C98.8822 88.2867 98.978 88.2867 99.0326 88.2415L113.704 76.095C117.217 73.1863 117.217 68.4771 113.704 65.5675C110.176 62.6473 104.45 62.6473 100.924 65.5673C99.8203 66.4813 98.0399 66.4812 96.9363 65.5672Z" fill="#9DBBE5"/>
</svg>
