<svg width="102" height="93" viewBox="0 0 102 93" fill="none" xmlns="http://www.w3.org/2000/svg">
<path d="M94.3468 10.3369C91.5553 7.09427 88.0493 4.48643 84.0815 2.70121C80.1137 0.915995 75.7829 -0.00215406 71.401 0.0129068C63.9035 -0.205032 56.6042 2.34395 51.0047 7.13541C45.4053 2.34395 38.1059 -0.205032 30.6085 0.0129068C26.2266 -0.00215406 21.8957 0.915995 17.9279 2.70121C13.9602 4.48643 10.4542 7.09427 7.66265 10.3369C2.80323 15.9957 -2.28054 26.2413 1.08995 42.9388C6.46946 69.603 46.8082 91.4845 48.5113 92.3803C49.2705 92.7867 50.1253 93 50.9945 93C51.8638 93 52.7186 92.7867 53.4778 92.3803C55.1911 91.4649 95.5298 69.5834 100.899 42.9388C104.29 26.2413 99.2062 15.9957 94.3468 10.3369ZM90.91 41.0787C87.1061 59.9301 59.459 77.4646 51.0047 82.4479C39.0933 75.5457 14.5872 58.2167 11.1249 41.0787C8.50909 28.126 12.0886 20.6021 15.556 16.5684C17.3897 14.4445 19.6902 12.7364 22.2927 11.5668C24.8951 10.3971 27.7349 9.7949 30.6085 9.80329C33.6775 9.58232 36.7539 10.1286 39.5376 11.3889C42.3213 12.6491 44.7173 14.5804 46.4921 16.9943C46.9297 17.7674 47.5753 18.4137 48.3616 18.8658C49.1479 19.318 50.0461 19.5593 50.9627 19.5648C51.8792 19.5703 52.7805 19.3398 53.5726 18.8971C54.3648 18.4545 55.0188 17.816 55.4664 17.0482C57.2377 14.6154 59.6389 12.6678 62.4331 11.3974C65.2273 10.127 68.3182 9.57755 71.401 9.80329C74.2805 9.78984 77.1273 10.3896 79.7363 11.5594C82.3454 12.7293 84.6517 14.44 86.4892 16.5684C89.9463 20.6021 93.5259 28.126 90.91 41.0787Z" fill="#9DBBE5"/>
</svg>
