<svg width="160" height="147" viewBox="0 0 160 147" fill="none" xmlns="http://www.w3.org/2000/svg">
<path d="M156.628 80.3035C152.775 76.7764 145.597 77.5266 140.797 80.5091C136.41 83.5797 106.422 100.135 106.422 100.135H69.9727L69.8578 100.183C67.9379 100.13 66.4378 98.7758 66.4945 97.166C66.5646 95.553 68.1796 94.29 70.0868 94.346L69.9723 94.29C76.4887 94.29 96.827 94.29 96.827 94.29C102.218 94.29 106.592 90.621 106.592 86.0953C106.592 81.5613 102.218 77.8898 96.827 77.8898C91.9444 77.8898 82.1851 77.8898 57.778 77.8898C33.3645 77.8898 25.6337 86.4373 17.0892 93.6093L1.58936 104.985C0.57832 105.722 0 106.782 0 107.908V145.711C0 146.21 0.356153 146.672 0.902686 146.883C1.44956 147.091 2.0918 147.019 2.54946 146.685L32.5066 125.11C33.5621 124.357 34.9733 124.037 36.334 124.242L83.0249 131.372C86.2798 131.868 89.6304 131.241 92.345 129.636C92.345 129.636 151.929 94.8301 156.335 91.7511C160.525 88.52 160.48 83.8309 156.628 80.3035Z" fill="#9DBBE5"/>
<path d="M66.2915 62.6853C73.6473 66.9179 82.9042 70.0204 82.9042 70.0204C83.756 70.253 85.0722 70.4557 85.5299 70.4557C85.9814 70.4557 87.2973 70.253 88.1494 70.0204C88.1494 70.0204 97.3998 66.9179 104.762 62.6853C115.964 56.2713 134.134 43.6813 134.134 25.9325C134.134 7.9299 122.01 -0.227728 108.672 0.00483066C98.4997 0.159582 92.4916 5.20897 88.4608 10.1863C87.7232 11.1102 86.6233 11.7002 85.5299 11.7243C84.43 11.7002 83.3301 11.1102 82.599 10.1863C78.5682 5.20897 72.5539 0.159582 62.3817 0.00483066C49.0369 -0.227728 36.9257 7.9299 36.9257 25.9325C36.9257 43.6813 55.0891 56.2716 66.2915 62.6853ZM56.2909 11.2782C57.3142 10.2236 58.5922 9.32927 60.0544 8.58394C61.4978 7.85238 63.3732 8.23941 64.2441 9.45187C65.1219 10.664 64.6574 12.2423 63.214 12.9713C62.2542 13.4625 61.5484 13.9753 61.0268 14.517C59.9652 15.6172 58.0388 15.78 56.7291 14.8857C55.4261 13.9913 55.2293 12.3787 56.2909 11.2782ZM49.1384 27.6175C49.1384 25.9035 49.3483 24.3121 49.7995 22.8487C50.2253 21.476 51.8978 20.6563 53.5254 21.0169C55.1592 21.3721 56.1316 22.774 55.7122 24.1435C55.4135 25.0941 55.2419 26.2529 55.2419 27.6175C55.2419 28.9687 55.4073 30.5228 55.7566 32.2638C56.3162 35.0517 57.7278 37.6417 59.7936 40.0741C60.7729 41.2248 60.455 42.8269 59.0816 43.6494C57.7022 44.4717 55.8011 44.2047 54.8222 43.0514C52.3236 40.122 50.4735 36.795 49.7359 33.1183C49.3418 31.1478 49.1384 29.3213 49.1384 27.6175Z" fill="#9DBBE5"/>
</svg>
